<?xml version="1.0" encoding="UTF-8" standalone="no"?>
<!-- Created with Inkscape (http://www.inkscape.org/) -->

<svg
   xmlns:dc="http://purl.org/dc/elements/1.1/"
   xmlns:cc="http://creativecommons.org/ns#"
   xmlns:rdf="http://www.w3.org/1999/02/22-rdf-syntax-ns#"
   xmlns:svg="http://www.w3.org/2000/svg"
   xmlns="http://www.w3.org/2000/svg"
   xmlns:sodipodi="http://sodipodi.sourceforge.net/DTD/sodipodi-0.dtd"
   xmlns:inkscape="http://www.inkscape.org/namespaces/inkscape"
   width="210mm"
   height="297mm"
   viewBox="0 0 744.09448819 1052.3622047"
   id="svg2"
   version="1.1"
   inkscape:version="0.91 r13725"
   shape-rendering="crispEdges"
   sodipodi:docname="TempLogo.svg">
  <defs
     id="defs4" />
  <sodipodi:namedview
     id="base"
     pagecolor="#ffffff"
     bordercolor="#666666"
     borderopacity="1.0"
     inkscape:pageopacity="0.0"
     inkscape:pageshadow="2"
     inkscape:zoom="0.70710678"
     inkscape:cx="227.29722"
     inkscape:cy="579.22984"
     inkscape:document-units="px"
     inkscape:current-layer="layer1"
     showgrid="false"
     showborder="false"
     inkscape:window-width="1440"
     inkscape:window-height="906"
     inkscape:window-x="-8"
     inkscape:window-y="-8"
     inkscape:window-maximized="1"
     inkscape:object-nodes="true"
     inkscape:snap-intersection-paths="false"
     inkscape:snap-midpoints="false"
     inkscape:object-paths="false" />
  <metadata
     id="metadata7">
    <rdf:RDF>
      <cc:Work
         rdf:about="">
        <dc:format>image/svg+xml</dc:format>
        <dc:type
           rdf:resource="http://purl.org/dc/dcmitype/StillImage" />
        <dc:title></dc:title>
      </cc:Work>
    </rdf:RDF>
  </metadata>
  <g
     inkscape:label="Layer 1"
     inkscape:groupmode="layer"
     id="layer1">
    <path
       inkscape:connector-curvature="0"
       style="opacity:1;fill:#cccccc"
       d="M 221,257.09961 20.720703,372.73047 221,488.36133 421.2793,372.73047 221,257.09961 Z"
       id="path4145" />
    <path
       inkscape:connector-curvature="0"
       style="opacity:1;fill:#808080"
       d="M 421.2793,372.73047 221,488.36133 l 0,231.26172 200.2793,-115.63086 0,-231.26172 z"
       id="path4147" />
    <path
       id="path4165"
       d="M 20.720703,372.73047 221,488.36133 221,719.62305 20.720703,603.99219 l 0,-231.26172 z"
       style="opacity:1;fill:#333333"
       inkscape:connector-curvature="0" />
    <g
       id="g4172">
      <path
         style="opacity:1;fill:#cccccc"
         d="M 221 257.09961 L 20.720703 372.73047 L 221 488.36133 L 421.2793 372.73047 L 221 257.09961 z "
         id="path4174" />
      <path
         style="opacity:1;fill:#808080"
         d="M 421.2793 372.73047 L 221 488.36133 L 221 719.62305 L 421.2793 603.99219 L 421.2793 372.73047 z "
         id="path4176" />
      <g
         id="g4520"
         transform="translate(-0.56153741,-0.48861791)">
        <path
           sodipodi:nodetypes="ccccc"
           inkscape:connector-curvature="0"
           id="path4463"
           d="m 147.43739,601.55821 -13.90429,-20.95117 -51.562505,-29.68555 0.0221,88.61038 z"
           style="opacity:1;fill:#a02c2c;fill-opacity:1" />
        <path
           sodipodi:nodetypes="cccc"
           inkscape:connector-curvature="0"
           id="path4178"
           d="m 147.34619,601.55821 -65.444697,37.97366 65.604997,37.7125 z"
           style="opacity:1;fill:#c83737;fill-opacity:1" />
      </g>
      <g
         id="g4236"
         transform="matrix(1,0,0,-1,158.63867,1127.4673)">
        <path
           style="opacity:1;fill:#c83737;fill-opacity:1"
           d="m 105.67188,469.86133 -43.310552,-25.00586 0,50 0.246094,0.14258 0,-0.27344 43.064458,-24.86328 z"
           id="path4228"
           inkscape:connector-curvature="0" />
        <path
           style="opacity:1;fill:#c83737"
           d="m 105.67188,469.86133 -43.064458,24.86328 0,0.27344 L 221,586.44531 l 0,-50 -115.32812,-66.58398 z"
           id="path4230"
           inkscape:connector-curvature="0" />
      </g>
      <path
         inkscape:connector-curvature="0"
         style="opacity:1;fill:#a02c2c"
         d="m 124.65051,479.05313 -43.310554,-25.00586 0,50 0.246094,0.14258 0,-0.27344 43.06446,-24.86328 z"
         id="path4212" />
      <path
         style="opacity:1;fill:#c83737"
         d="M 124.65039 479.05273 L 81.585938 503.91602 L 81.585938 504.18945 L 146.94531 541.08594 L 146.94531 504.4043 L 133.85742 484.6582 L 124.65039 479.05273 z "
         id="path4273" />
      <g
         id="g4240"
         transform="matrix(1,0,0,-1,200.2793,1031.3008)"
         style="fill:#c83737">
        <g
           id="g4260"
           transform="translate(0,14.849242)"
           style="fill:#c83737">
          <path
             inkscape:connector-curvature="0"
             style="opacity:1;fill:#c83737;fill-opacity:1"
             d="m 105.67188,469.86133 -43.310552,-25.00586 0,50 0.246094,0.14258 0,-0.27344 43.064458,-24.86328 z"
             id="path4242" />
          <path
             inkscape:connector-curvature="0"
             style="opacity:1;fill:#c83737"
             d="m 105.67188,469.86133 -43.064458,24.86328 0,0.27344 L 221,586.44531 l 0,-50 -115.32812,-66.58398 z"
             id="path4244" />
        </g>
      </g>
      <path
         id="path4305"
         d="m 377.96875,455.01211 43.31055,-25.00586 0,50 -0.24609,0.14258 0,-0.27344 -43.06446,-24.86328 z"
         style="opacity:1;fill:#782121"
         inkscape:connector-curvature="0" />
      <path
         inkscape:connector-curvature="0"
         style="opacity:1;fill:#782121"
         d="m 336.32812,566.02785 43.31055,-25.00586 0,50 -0.24609,0.14258 0,-0.27344 -43.06446,-24.86328 z"
         id="path4316" />
      <g
         transform="matrix(0.5,0.8660254,0.8660254,-0.5,-368.32216,525.3382)"
         id="g4484">
        <g
           transform="translate(0,14.849242)"
           id="g4486">
          <path
             id="path4488"
             d="m 105.67188,469.86133 -43.310552,-25.00586 0,50 0.246094,0.14258 0,-0.27344 43.064458,-24.86328 z"
             style="opacity:1;fill:#a02c2c;fill-opacity:1"
             inkscape:connector-curvature="0" />
          <path
             id="path4490"
             d="m 105.67188,469.86133 -43.064458,24.86328 0,0.27344 L 221,586.44531 l 0,-50 -115.32812,-66.58398 z"
             style="opacity:1;fill:#782121"
             inkscape:connector-curvature="0" />
        </g>
      </g>
      <path
         inkscape:connector-curvature="0"
         style="opacity:1;fill:#782121"
         d="m 220.72082,391.71145 43.31099,25.00511 -43.30127,25 -0.24653,-0.14183 0.23681,-0.13672 0,-49.72656 z"
         id="path4492" />
      <g
         id="g4496"
         transform="matrix(-0.5,-0.8660254,-0.8660254,0.5,810.00105,220.3646)">
        <path
           id="path4500"
           d="m 105.67188,484.71057 -43.310552,-25.00586 0,50 0.246094,0.14258 0,-0.27344 43.064458,-24.86328 z"
           style="opacity:1;fill:#800000;fill-opacity:1"
           inkscape:connector-curvature="0" />
        <path
           id="path4502"
           d="m 105.67188,484.71057 -43.064458,24.86328 0,0.27344 L 221,601.29455 l 0,-50 -115.32812,-66.58398 z"
           style="opacity:1;fill:#800000"
           inkscape:connector-curvature="0" />
        <path
           inkscape:connector-curvature="0"
           style="opacity:1;fill:#800000;fill-opacity:1"
           d="m 105.67188,484.71057 -43.310552,-25.00586 0,50 0.246094,0.14258 0,-0.27344 43.064458,-24.86328 z"
           id="path4576" />
        <path
           inkscape:connector-curvature="0"
           style="opacity:1;fill:#800000"
           d="m 105.67188,484.71057 -43.064458,24.86328 0,0.27344 L 221,601.29455 l 0,-50 -115.32812,-66.58398 z"
           id="path4578" />
      </g>
      <path
         id="path4504"
         d="m 222.07568,354.62537 -43.31098,-25.00511 43.30127,-25 0.24652,0.14183 -0.23681,0.13672 0,49.72656 z"
         style="opacity:1;fill:#a02c2c"
         inkscape:connector-curvature="0" />
    </g>
  </g>
</svg>
